# xmcd
#
# Track frame offsets:
#	150
#	3321
#	16549
#	27323
#	38563
#	49109
#	62819
#	73012
#	84716
#	97305
#	108221
#	120330
#	137030
#	146284
#	162250
#	177256
#	189903
#	202187
#	217455
#	227567
#	241666
#	252863
#	266628
#
# Disc length: 3638 seconds
#
# Revision: 1
# Processed by: cddbd v1.5.2PL0 Copyright (c) Steve Scherf et al.
# Submitted via: audiograbber 1.83.01
#
DISCID=3c0e3417
DTITLE=Los Tigres Del Norte - 23 Grandes Corridos
DYEAR=2001
DGENRE=Country
TTITLE0=Introducción - introduccion
TTITLE1=La Banda Del Carro Rojo - pista 1
TTITLE2=Ya Encontraron A Camelia - pista 2 
TTITLE3=La Camioneta Gris - pista 3
TTITLE4=Contrabando Y Robo - pista 4
TTITLE5=Contrabando Y Traición - pista 5
TTITLE6=El Hijo De Camelia - pista 6
TTITLE7=La Fuga Del Rojo - pista 7
TTITLE8=Carrera Contra La Muerte - pista 8
TTITLE9=Margarita La De Tijuana - pista 9
TTITLE10=El Gato Félix - pista 10
TTITLE11=Los Tres Amigos - pista 11
TTITLE12=Entre El Amor Y Yo - pista 12
TTITLE13=La Mesera - pista 13
TTITLE14=Agua Salada - pista 15
TTITLE15=Ya Te Velé - pista 16
TTITLE16=R-1 - pista 17
TTITLE17=El Avion De La Muerte - pista 18
TTITLE18=El Corrido - pista 19
TTITLE19=Rosita De Olivo - pista 20
TTITLE20=El Filo Del Reloj - pista 21
TTITLE21=El Tahur - pista 22
TTITLE22=Valentín Félix - pista 23
EXTD=
EXTT0=
EXTT1=
EXTT2=
EXTT3=
EXTT4=
EXTT5=
EXTT6=
EXTT7=
EXTT8=
EXTT9=
EXTT10=
EXTT11=
EXTT12=
EXTT13=
EXTT14=
EXTT15=
EXTT16=
EXTT17=
EXTT18=
EXTT19=
EXTT20=
EXTT21=
EXTT22=
PLAYORDER=
